<svg xmlns="http://www.w3.org/2000/svg" viewBox="0 0 1152 1194">
  <rect width="1152" height="1194" fill="#195050"/>
  <path fill="#e0cec2" fill-rule="evenodd" d="M 376.4 1113.0 C 366.5 1111.7, 349.8 1108.3, 339.4 1105.6 C 247.9 1081.9, 170.6 998.3, 141.7 891.6 C 134.4 864.8, 133.8 857.7, 133.6 802.5 C 133.5 755.5, 134.7 737.0, 138.9 717.0 C 160.8 614.6, 207.8 512.3, 279.8 410.0 C 291.2 393.8, 300.1 380.2, 299.5 379.6 C 294.8 375.4, 252.8 356.5, 241.8 353.8 C 234.2 351.9, 228.0 349.3, 228.0 348.0 C 228.0 339.0, 328.7 220.8, 339.3 217.4 C 345.2 215.5, 379.8 230.5, 403.1 245.1 L 417.7 254.2 L 442.1 236.6 C 509.7 187.8, 601.9 155.9, 675.4 156.0 C 723.1 156.1, 787.5 172.1, 832.3 195.0 C 966.9 264.0, 1044.7 386.5, 1068.5 567.0 C 1077.3 633.7, 1071.9 752.4, 1055.7 845.6 C 1044.6 909.2, 1014.1 1030.0, 999.3 1068.8 L 996.1 1077.0 L 907.6 1077.0 C 858.9 1077.0, 819.0 1076.5, 819.0 1075.9 C 819.0 1075.2, 822.3 1065.9, 826.4 1055.2 C 830.4 1044.4, 840.6 1012.8, 849.1 985.0 C 907.9 791.2, 922.7 642.6, 894.3 530.3 C 878.7 468.4, 853.3 423.5, 812.1 385.2 C 769.4 345.5, 725.4 326.5, 675.0 326.2 C 640.8 325.9, 617.0 331.7, 583.5 348.2 C 491.4 393.5, 389.3 522.5, 331.1 666.8 C 309.7 720.0, 302.7 748.9, 300.9 792.0 C 298.5 849.2, 309.2 881.9, 341.0 915.3 C 363.2 938.6, 381.1 946.2, 409.4 944.3 C 435.9 942.6, 451.7 934.8, 474.1 912.4 C 524.7 861.7, 533.7 778.3, 500.8 663.7 C 489.4 623.9, 471.4 578.5, 453.1 543.8 L 438.5 516.1 L 450.0 498.3 C 466.0 473.6, 500.5 438.0, 532.3 413.3 L 559.1 392.6 L 564.5 399.5 C 589.8 432.8, 632.1 516.9, 650.9 571.4 C 678.4 651.3, 688.0 704.4, 688.2 777.0 C 688.4 852.8, 677.4 900.3, 645.6 960.8 C 591.5 1064.2, 479.4 1127.5, 376.4 1113.0 Z"/>
  <path fill="#eefe6a" fill-rule="evenodd" d="M 155.2 272.7 C 132.1 267.3, 105.3 248.4, 96.0 231.1 C 93.1 225.6, 93.6 225.3, 102.7 226.8 C 120.3 229.9, 145.1 237.4, 155.9 243.0 C 168.3 249.4, 192.0 269.2, 192.0 273.2 C 192.0 276.6, 170.5 276.3, 155.2 272.7 Z M 192.7 255.0 C 172.2 235.9, 145.4 223.0, 112.4 216.3 C 81.9 210.1, 81.8 210.1, 81.3 177.9 C 80.6 134.6, 109.6 95.5, 150.5 84.6 L 161.4 81.6 L 165.0 95.6 C 174.6 133.8, 209.9 176.3, 247.5 194.9 C 259.1 200.6, 269.0 205.6, 269.7 206.0 C 271.8 207.5, 263.3 225.1, 254.8 236.9 C 246.2 248.7, 225.4 264.7, 214.5 267.9 C 210.1 269.2, 204.3 265.8, 192.7 255.0 Z M 251.9 183.8 C 218.9 167.1, 183.1 122.6, 175.6 88.8 L 173.7 80.1 L 189.9 81.8 C 221.4 85.1, 254.1 109.5, 267.5 140.0 C 274.0 154.6, 276.6 189.1, 271.4 191.0 C 269.7 191.6, 260.9 188.3, 251.9 183.8 Z"/>
</svg>
